<svg xmlns="http://www.w3.org/2000/svg" width="85.051" height="66.138" viewBox="0 0 85.051 66.138"><path d="M41.4,19.411,14.175,41.831v24.2a2.362,2.362,0,0,0,2.362,2.362l16.545-.043a2.362,2.362,0,0,0,2.351-2.362V51.855A2.362,2.362,0,0,1,37.8,49.493h9.449a2.362,2.362,0,0,1,2.362,2.362V65.976a2.362,2.362,0,0,0,2.362,2.37l16.539.046a2.362,2.362,0,0,0,2.362-2.362V41.815l-27.216-22.4A1.8,1.8,0,0,0,41.4,19.411Zm43,15.239L72.052,24.476V4.025a1.772,1.772,0,0,0-1.772-1.772H62.012a1.772,1.772,0,0,0-1.772,1.772V14.746L47.022,3.87a7.087,7.087,0,0,0-9.006,0L.642,34.65a1.772,1.772,0,0,0-.236,2.5l3.765,4.577a1.772,1.772,0,0,0,2.5.241L41.4,13.358a1.8,1.8,0,0,1,2.259,0l34.731,28.6a1.772,1.772,0,0,0,2.5-.236l3.765-4.577a1.772,1.772,0,0,0-.251-2.5Z" transform="translate(0.001 -2.254)" fill="#ff5155"/></svg>