<svg xmlns="http://www.w3.org/2000/svg" width="234.17" height="156.113" viewBox="0 0 234.17 156.113"><path d="M214.656,160.613H19.514A19.514,19.514,0,0,1,0,141.1V24.014A19.514,19.514,0,0,1,19.514,4.5H214.656A19.514,19.514,0,0,1,234.17,24.014V141.1A19.514,19.514,0,0,1,214.656,160.613ZM52.038,51.659V35.4a4.879,4.879,0,0,0-4.879-4.879H30.9A4.879,4.879,0,0,0,26.019,35.4V51.659A4.879,4.879,0,0,0,30.9,56.538H47.159A4.879,4.879,0,0,0,52.038,51.659Zm39.028,0V35.4a4.879,4.879,0,0,0-4.879-4.879H69.926A4.879,4.879,0,0,0,65.047,35.4V51.659a4.879,4.879,0,0,0,4.879,4.879H86.187A4.879,4.879,0,0,0,91.066,51.659Zm39.028,0V35.4a4.879,4.879,0,0,0-4.879-4.879H108.954a4.879,4.879,0,0,0-4.879,4.879V51.659a4.879,4.879,0,0,0,4.879,4.879h16.262A4.879,4.879,0,0,0,130.094,51.659Zm39.028,0V35.4a4.879,4.879,0,0,0-4.879-4.879H147.982A4.879,4.879,0,0,0,143.1,35.4V51.659a4.879,4.879,0,0,0,4.879,4.879h16.262A4.879,4.879,0,0,0,169.123,51.659Zm39.028,0V35.4a4.879,4.879,0,0,0-4.879-4.879H187.011a4.879,4.879,0,0,0-4.879,4.879V51.659a4.879,4.879,0,0,0,4.879,4.879h16.262A4.879,4.879,0,0,0,208.151,51.659ZM71.552,90.687V74.426a4.879,4.879,0,0,0-4.879-4.879H50.412a4.879,4.879,0,0,0-4.879,4.879V90.687a4.879,4.879,0,0,0,4.879,4.879H66.673A4.879,4.879,0,0,0,71.552,90.687Zm39.028,0V74.426a4.879,4.879,0,0,0-4.879-4.879H89.44a4.879,4.879,0,0,0-4.879,4.879V90.687a4.879,4.879,0,0,0,4.879,4.879H105.7A4.879,4.879,0,0,0,110.58,90.687Zm39.028,0V74.426a4.879,4.879,0,0,0-4.879-4.879H128.468a4.879,4.879,0,0,0-4.879,4.879V90.687a4.879,4.879,0,0,0,4.879,4.879H144.73A4.879,4.879,0,0,0,149.608,90.687Zm39.028,0V74.426a4.879,4.879,0,0,0-4.879-4.879H167.5a4.879,4.879,0,0,0-4.879,4.879V90.687a4.879,4.879,0,0,0,4.879,4.879h16.262A4.879,4.879,0,0,0,188.637,90.687Zm-136.6,39.028V113.454a4.879,4.879,0,0,0-4.879-4.879H30.9a4.879,4.879,0,0,0-4.879,4.879v16.262a4.879,4.879,0,0,0,4.879,4.879H47.159A4.879,4.879,0,0,0,52.038,129.716Zm117.085,0V113.454a4.879,4.879,0,0,0-4.879-4.879H69.926a4.879,4.879,0,0,0-4.879,4.879v16.262a4.879,4.879,0,0,0,4.879,4.879h94.318A4.879,4.879,0,0,0,169.123,129.716Zm39.028,0V113.454a4.879,4.879,0,0,0-4.879-4.879H187.011a4.879,4.879,0,0,0-4.879,4.879v16.262a4.879,4.879,0,0,0,4.879,4.879h16.262A4.879,4.879,0,0,0,208.151,129.716Z" transform="translate(0 -4.5)" fill="#ff5155" opacity="0.64"/></svg>